<svg style="display: none;"><symbol viewBox="0 0 24 28" id="icon-bars"><title>bars</title><path d="M24 21v2q0 .406-.297.703T23 24H1q-.406 0-.703-.297T0 23v-2q0-.406.297-.703T1 20h22q.406 0 .703.297T24 21zm0-8v2q0 .406-.297.703T23 16H1q-.406 0-.703-.297T0 15v-2q0-.406.297-.703T1 12h22q.406 0 .703.297T24 13zm0-8v2q0 .406-.297.703T23 8H1q-.406 0-.703-.297T0 7V5q0-.406.297-.703T1 4h22q.406 0 .703.297T24 5z"/></symbol><symbol viewBox="0 0 32 32" id="icon-facebook"><title>facebook</title><path d="M29 0H3C1.35 0 0 1.35 0 3v26c0 1.65 1.35 3 3 3h13V18h-4v-4h4v-2c0-3.306 2.694-6 6-6h4v4h-4c-1.1 0-2 .9-2 2v2h6l-1 4h-5v14h9c1.65 0 3-1.35 3-3V3c0-1.65-1.35-3-3-3z"/></symbol><symbol viewBox="0 0 32 32" id="icon-instagram"><title>instagram</title><path d="M29 0H3C1.35 0 0 1.35 0 3v26c0 1.65 1.35 3 3 3h26c1.65 0 3-1.35 3-3V3c0-1.65-1.35-3-3-3zm-7 5c0-.55.45-1 1-1h4c.55 0 1 .45 1 1v4c0 .55-.45 1-1 1h-4c-.55 0-1-.45-1-1V5zm-6 5c3.313 0 6 2.688 6 6s-2.688 6-6 6c-3.313 0-6-2.688-6-6s2.688-6 6-6zm12 17c0 .55-.45 1-1 1H5c-.55 0-1-.45-1-1V14h2.2c-.13.644-.2 1.313-.2 2 0 5.525 4.475 10 10 10s10-4.475 10-10c0-.688-.07-1.356-.2-2H28v13z"/></symbol><symbol viewBox="0 0 32 32" id="icon-pinterest"><title>pinterest</title><path d="M16 2.138C8.344 2.138 2.137 8.344 2.137 16c0 5.876 3.656 10.888 8.813 12.907-.12-1.094-.23-2.78.05-3.975.25-1.08 1.625-6.887 1.625-6.887s-.412-.83-.412-2.056c0-1.926 1.12-3.37 2.506-3.37 1.18 0 1.755.887 1.755 1.95 0 1.188-.756 2.97-1.15 4.613-.33 1.38.688 2.506 2.05 2.506 2.462 0 4.356-2.6 4.356-6.35 0-3.32-2.386-5.64-5.786-5.64-3.944 0-6.256 2.957-6.256 6.02 0 1.194.456 2.47 1.03 3.163.114.137.132.256.095.4-.106.438-.338 1.38-.387 1.575-.063.256-.2.306-.463.188-1.73-.806-2.813-3.337-2.813-5.37 0-4.374 3.175-8.386 9.156-8.386 4.806 0 8.544 3.425 8.544 8.006 0 4.775-3.012 8.625-7.194 8.625-1.406 0-2.725-.73-3.175-1.593 0 0-.693 2.644-.862 3.294-.313 1.207-1.156 2.713-1.725 3.632 1.3.4 2.675.62 4.106.62 7.655 0 13.862-6.207 13.862-13.864 0-7.662-6.206-13.87-13.863-13.87z"/></symbol><symbol viewBox="0 0 32 32" id="icon-twitter"><title>twitter</title><path d="M32 7.075a12.94 12.94 0 0 1-3.77 1.03 6.6 6.6 0 0 0 2.888-3.63 13.21 13.21 0 0 1-4.17 1.594A6.565 6.565 0 0 0 22.156 4a6.563 6.563 0 0 0-6.563 6.563c0 .512.056 1.012.17 1.494A18.635 18.635 0 0 1 2.23 5.195a6.56 6.56 0 0 0-.887 3.3 6.557 6.557 0 0 0 2.92 5.463 6.565 6.565 0 0 1-2.976-.82v.082a6.565 6.565 0 0 0 5.27 6.437 6.574 6.574 0 0 1-2.97.112A6.588 6.588 0 0 0 9.72 24.33a13.17 13.17 0 0 1-9.726 2.72A18.568 18.568 0 0 0 10.064 30c12.074 0 18.68-10.007 18.68-18.682 0-.287-.006-.57-.02-.85A13.216 13.216 0 0 0 32 7.076z"/></symbol><symbol viewBox="0 0 32 32" id="icon-yelp"><title>yelp</title><path d="M19.027 20.42c-.54.546-.083 1.536-.083 1.536l4.065 6.788s.667.895 1.245.895c.58 0 1.155-.478 1.155-.478l3.214-4.594s.324-.58.33-1.087c.013-.72-1.076-.92-1.076-.92l-7.61-2.443s-.745-.198-1.24.303zM18.642 17c.39.66 1.463.468 1.463.468l7.592-2.22s1.035-.42 1.182-.98c.144-.562-.172-1.24-.172-1.24L25.08 8.756s-.314-.54-.967-.595c-.72-.06-1.162.81-1.162.81l-4.29 6.75s-.378.67-.02 1.28zm-3.587-2.632c.894-.22 1.036-1.52 1.036-1.52l-.06-10.807S15.895.71 15.296.347c-.94-.57-1.218-.272-1.487-.233L7.505 2.455s-.617.204-.94.72c-.458.73.467 1.797.467 1.797l6.55 8.93s.648.67 1.47.465zm-1.557 4.374c.023-.834-1-1.334-1-1.334L5.72 13.985s-1.004-.414-1.49-.126c-.374.22-.705.62-.738.972l-.44 5.432s-.067.94.177 1.37c.346.607 1.483.183 1.483.183l7.91-1.748c.306-.208.845-.226.875-1.33zm1.967 2.93c-.68-.348-1.49.374-1.49.374l-5.297 5.83s-.66.892-.493 1.44c.158.512.42.767.79.947l5.32 1.68s.645.133 1.133-.01c.693-.2.565-1.285.565-1.285l.12-7.894s-.027-.76-.648-1.082z"/></symbol></svg>