<svg xmlns="http://www.w3.org/2000/svg" width="32" height="32" viewBox="0 0 32 32"><path fill="#444" d="M16 2.138C8.344 2.138 2.137 8.344 2.137 16c0 5.876 3.656 10.888 8.813 12.907-.12-1.094-.23-2.78.05-3.975.25-1.08 1.625-6.887 1.625-6.887s-.412-.83-.412-2.056c0-1.926 1.12-3.37 2.506-3.37 1.18 0 1.755.887 1.755 1.95 0 1.188-.756 2.97-1.15 4.613-.33 1.38.688 2.506 2.05 2.506 2.462 0 4.356-2.6 4.356-6.35 0-3.32-2.386-5.64-5.786-5.64-3.944 0-6.256 2.957-6.256 6.02 0 1.194.456 2.47 1.03 3.163.114.137.132.256.095.4-.106.438-.338 1.38-.387 1.575-.063.256-.2.306-.463.188-1.73-.806-2.813-3.337-2.813-5.37 0-4.374 3.175-8.386 9.156-8.386 4.806 0 8.544 3.425 8.544 8.006 0 4.775-3.012 8.625-7.194 8.625-1.406 0-2.725-.73-3.175-1.593 0 0-.693 2.644-.862 3.294-.313 1.207-1.156 2.713-1.725 3.632 1.3.4 2.675.62 4.106.62 7.655 0 13.862-6.207 13.862-13.864 0-7.662-6.206-13.87-13.863-13.87z"/></svg>