<svg xmlns="http://www.w3.org/2000/svg" width="32" height="32" viewBox="0 0 32 32"><path fill="#444" d="M19.027 20.42c-.54.546-.083 1.536-.083 1.536l4.065 6.788s.667.895 1.245.895c.58 0 1.155-.478 1.155-.478l3.214-4.594s.324-.58.33-1.087c.013-.72-1.076-.92-1.076-.92l-7.61-2.443s-.745-.198-1.24.303zM18.642 17c.39.66 1.463.468 1.463.468l7.592-2.22s1.035-.42 1.182-.98c.144-.562-.172-1.24-.172-1.24L25.08 8.756s-.314-.54-.967-.595c-.72-.06-1.162.81-1.162.81l-4.29 6.75s-.378.67-.02 1.28zm-3.587-2.632c.894-.22 1.036-1.52 1.036-1.52l-.06-10.807S15.895.71 15.296.347c-.94-.57-1.218-.272-1.487-.233L7.505 2.455s-.617.204-.94.72c-.458.73.467 1.797.467 1.797l6.55 8.93s.648.67 1.47.465zm-1.557 4.374c.023-.834-1-1.334-1-1.334L5.72 13.985s-1.004-.414-1.49-.126c-.374.22-.705.62-.738.972l-.44 5.432s-.067.94.177 1.37c.346.607 1.483.183 1.483.183l7.91-1.748c.306-.208.845-.226.875-1.33zm1.967 2.93c-.68-.348-1.49.374-1.49.374l-5.297 5.83s-.66.892-.493 1.44c.158.512.42.767.79.947l5.32 1.68s.645.133 1.133-.01c.693-.2.565-1.285.565-1.285l.12-7.894s-.027-.76-.648-1.082z"/></svg>